<svg xmlns="http://www.w3.org/2000/svg" viewBox="0 0 96 126" fill="none">
  <g stroke="#d71920" stroke-width="5" stroke-linecap="round" stroke-linejoin="round">
    <path d="M49 9C64 23 71 42 66 66L48 84 30 66C25 42 34 22 49 9Z"/>
    <path d="M31 65 15 75c-1-16 2-29 12-38"/>
    <path d="M65 65 81 75c1-16-2-29-12-38"/>
    <circle cx="49" cy="42" r="8"/>
    <path d="M39 82 31 102"/>
    <path d="M49 88v25"/>
    <path d="M59 82 67 102"/>
    <path d="M23 93 9 112"/>
    <path d="M76 93 90 112"/>
  </g>
</svg>
