<svg xmlns="http://www.w3.org/2000/svg" viewBox="0 0 1200 800" role="img" aria-labelledby="title desc">
  <title id="title">Hero placeholder for future lab imagery</title>
  <desc id="desc">Bright abstract shapes intended to be replaced with a lab hero image.</desc>
  <defs>
    <linearGradient id="sky" x1="0" y1="0" x2="1" y2="1">
      <stop offset="0%" stop-color="#e6f6ff"/>
      <stop offset="100%" stop-color="#d4efff"/>
    </linearGradient>
    <linearGradient id="accent" x1="0" y1="0" x2="1" y2="1">
      <stop offset="0%" stop-color="#1f78ff"/>
      <stop offset="100%" stop-color="#6ee7ff"/>
    </linearGradient>
  </defs>
  <rect width="1200" height="800" fill="url(#sky)"/>
  <circle cx="940" cy="180" r="120" fill="#fff2b8"/>
  <circle cx="250" cy="600" r="170" fill="#d4f8e8"/>
  <path d="M120 590c120-140 240-180 360-100s220 120 420 20 220-50 300 30v260H120z" fill="#b9ddff"/>
  <path d="M0 690c130-90 250-110 380-50s250 80 410 10 260-60 410 20v130H0z" fill="url(#accent)" opacity=".85"/>
  <rect x="120" y="140" width="320" height="250" rx="32" fill="#ffffff" opacity=".9"/>
  <rect x="180" y="200" width="200" height="28" rx="14" fill="#1f78ff" opacity=".9"/>
  <rect x="180" y="250" width="150" height="20" rx="10" fill="#2d3748" opacity=".35"/>
  <rect x="180" y="290" width="170" height="20" rx="10" fill="#2d3748" opacity=".22"/>
  <rect x="180" y="330" width="130" height="20" rx="10" fill="#2d3748" opacity=".18"/>
</svg>
