<svg xmlns="http://www.w3.org/2000/svg" viewBox="0 0 1200 800" role="img" aria-labelledby="title desc">
  <title id="title">Project placeholder for bone mechanoregulation during growth</title>
  <desc id="desc">Bright scientific illustration intended to be replaced with a project image.</desc>
  <defs>
    <linearGradient id="bg" x1="0" y1="0" x2="1" y2="1">
      <stop offset="0%" stop-color="#eef8ff"/>
      <stop offset="100%" stop-color="#d9f1ff"/>
    </linearGradient>
    <linearGradient id="bone" x1="0" y1="0" x2="1" y2="1">
      <stop offset="0%" stop-color="#4aa3ff"/>
      <stop offset="100%" stop-color="#1f78ff"/>
    </linearGradient>
  </defs>
  <rect width="1200" height="800" fill="url(#bg)"/>
  <circle cx="970" cy="150" r="140" fill="#fff4bf"/>
  <circle cx="180" cy="170" r="90" fill="#d5f7ea"/>
  <path d="M120 620c140-120 260-150 390-90s230 100 410 10 250-70 280-20v280H120z" fill="#b4d8ff"/>
  <rect x="170" y="150" width="360" height="500" rx="40" fill="#ffffff" opacity=".9"/>
  <path d="M310 240c-40 0-72 32-72 72 0 18 7 34 18 47-11 13-18 29-18 47 0 40 32 72 72 72s72-32 72-72c0-18-7-34-18-47 11-13 18-29 18-47 0-40-32-72-72-72z" fill="url(#bone)"/>
  <path d="M445 240c-40 0-72 32-72 72 0 18 7 34 18 47-11 13-18 29-18 47 0 40 32 72 72 72s72-32 72-72c0-18-7-34-18-47 11-13 18-29 18-47 0-40-32-72-72-72z" fill="#7bd6ff"/>
  <path d="M255 250c55 30 125 30 180 0" fill="none" stroke="#ffffff" stroke-width="16" stroke-linecap="round" opacity=".6"/>
  <path d="M370 395c70 0 130 30 180 85" fill="none" stroke="#1f78ff" stroke-width="10" stroke-linecap="round" opacity=".5"/>
  <circle cx="560" cy="260" r="22" fill="#ffb347"/>
  <circle cx="610" cy="330" r="16" fill="#ff7f8e"/>
  <circle cx="560" cy="410" r="20" fill="#47d7ac"/>
</svg>
