<svg xmlns="http://www.w3.org/2000/svg" viewBox="0 0 1200 800" role="img" aria-labelledby="title desc">
  <title id="title">Project placeholder for pediatric fracture healing</title>
  <desc id="desc">Bright scientific illustration intended to be replaced with a project image.</desc>
  <defs>
    <linearGradient id="bg" x1="0" y1="0" x2="1" y2="1">
      <stop offset="0%" stop-color="#f0fbff"/>
      <stop offset="100%" stop-color="#d8f2ff"/>
    </linearGradient>
  </defs>
  <rect width="1200" height="800" fill="url(#bg)"/>
  <circle cx="970" cy="170" r="120" fill="#fff0b0"/>
  <circle cx="180" cy="610" r="160" fill="#d8f7e5"/>
  <rect x="120" y="120" width="420" height="560" rx="42" fill="#ffffff" opacity=".92"/>
  <path d="M240 190h90l-30 130h70l-140 210 35-145h-75z" fill="#1f78ff"/>
  <path d="M360 210c120 0 200 85 200 190s-80 190-200 190" fill="none" stroke="#7bd6ff" stroke-width="28" stroke-linecap="round"/>
  <path d="M360 240c85 0 145 60 145 160s-60 160-145 160" fill="none" stroke="#ff8aa1" stroke-width="14" stroke-linecap="round" opacity=".9"/>
  <circle cx="710" cy="270" r="36" fill="#ffbf69"/>
  <circle cx="760" cy="350" r="24" fill="#5eead4"/>
  <circle cx="700" cy="440" r="30" fill="#8b9cff"/>
  <path d="M520 600c110-90 210-110 320-60s190 60 260 10v150H520z" fill="#b4d8ff"/>
</svg>
