<svg xmlns="http://www.w3.org/2000/svg" viewBox="0 0 1200 800" role="img" aria-labelledby="title desc">
  <title id="title">Replace with a publication or article visual</title>
  <desc id="desc">Bright editorial placeholder for future publication highlights.</desc>
  <defs>
    <linearGradient id="bg" x1="0" y1="0" x2="1" y2="1">
      <stop offset="0%" stop-color="#eef9ff"/>
      <stop offset="100%" stop-color="#d9f2ff"/>
    </linearGradient>
  </defs>
  <rect width="1200" height="800" fill="url(#bg)"/>
  <circle cx="980" cy="150" r="125" fill="#fff2be"/>
  <circle cx="180" cy="620" r="170" fill="#d5f7ea"/>
  <rect x="180" y="120" width="840" height="560" rx="42" fill="#ffffff" opacity=".94"/>
  <rect x="250" y="210" width="310" height="34" rx="17" fill="#1f78ff"/>
  <rect x="250" y="275" width="540" height="20" rx="10" fill="#7bd6ff"/>
  <rect x="250" y="315" width="500" height="20" rx="10" fill="#b4d8ff"/>
  <rect x="250" y="355" width="440" height="20" rx="10" fill="#d6e8f5"/>
  <rect x="250" y="440" width="180" height="150" rx="24" fill="#ff8da1" opacity=".92"/>
  <rect x="460" y="440" width="180" height="150" rx="24" fill="#7bd6ff" opacity=".92"/>
  <rect x="670" y="440" width="180" height="150" rx="24" fill="#ffd166" opacity=".92"/>
  <path d="M865 250c80 32 110 98 110 160s-30 128-110 160" fill="none" stroke="#1f78ff" stroke-width="18" stroke-linecap="round"/>
</svg>
